<?xml version="1.0" encoding="UTF-8"?>
<svg width="87px" height="56px" viewBox="0 0 87 56" version="1.1" xmlns="http://www.w3.org/2000/svg" xmlns:xlink="http://www.w3.org/1999/xlink">
    <!-- Generator: Sketch 48.2 (47327) - http://www.bohemiancoding.com/sketch -->
    <title>Logo/Alea</title>
    <desc>Created with Sketch.</desc>
    <defs>
        <path d="M0.619101124,11.885567 C-0.661797753,16.843299 0.619101124,21.8226804 5.65730337,19.7659794 C8.09101124,18.7701031 9.73483146,17.7092784 10.5674157,17.2546392 L10.3752809,16.0206186 C4.03483146,18.8134021 3.43707865,17.557732 4.44044944,14.2020619 C6.12696629,8.50824742 10.4820225,4.2 13.8550562,4.78453608 C13.5561798,6.10515464 12.3179775,11.1278351 11.8910112,13.8989691 C11.4640449,16.6701031 12.894382,19.6360825 14.2606742,20.8051546 C14.7516854,20.7185567 14.9865169,20.5453608 15.2213483,20.3938144 C14.794382,20.1123711 13.705618,17.9041237 14.5808989,14.1587629 C15.3707865,10.7597938 18.5089888,3.31237113 18.7011236,2.9443299 C19.9820225,0.584536082 15.4134831,0.303092784 15.2,0.822680412 C14.2179775,0.303092784 13.2146067,0.0649484536 12.211236,0.0649484536 C7.13033708,0.0865979381 2.11348315,6.08350515 0.619101124,11.885567" id="path-1"></path>
        <radialGradient cx="49.3877847%" cy="47.7419653%" fx="49.3877847%" fy="47.7419653%" r="1.03519669%" gradientTransform="translate(0.493878,0.477420),scale(1.000000,0.949713),translate(-0.493878,-0.477420)" id="radialGradient-3">
            <stop stop-color="#F26825" offset="0%"></stop>
            <stop stop-color="#F26825" offset="10.7%"></stop>
            <stop stop-color="#E73E30" offset="89.84%"></stop>
            <stop stop-color="#E73E30" offset="100%"></stop>
        </radialGradient>
        <path d="M35.6979058,0 C23.5910995,0.0212598425 0,31.4220472 0,31.4220472 L1.37382199,31.592126 C1.37382199,31.592126 26.7680628,2.21102362 33.9806283,4.01811024 C36.8356021,4.74094488 37.3078534,10.8637795 31.7696335,23.215748 C25.2010471,23.4708661 20.3282723,21.2385827 18.6968586,20.7496063 C16.4643979,20.0692913 14.9188482,20.8984252 14.4465969,22.3440945 C13.9743455,23.7897638 14.7256545,25.3629921 16.1209424,25.788189 C18.2246073,26.4047244 23.5267016,27.3401575 30.5031414,25.9795276 C27.6696335,31.8259843 23.6340314,38.884252 18.0743455,47.2181102 L15.4554974,51.2149606 C13.3732984,54.0850394 21.0366492,55.0629921 22.7539267,52.1291339 L28.1633508,41.8393701 C31.5335079,35.2488189 34.152356,29.4661417 36.0842932,24.4488189 C37.9089005,23.8110236 38.295288,23.6622047 40.2272251,22.684252 L40.8497382,21.3023622 C38.939267,22.1740157 38.5743455,22.1527559 36.7926702,22.5566929 C41.686911,9.33307087 41.5581152,2.06220472 38.0806283,0.488976378 C37.3722513,0.17007874 36.5780105,5.47593467e-15 35.7408377,5.47593467e-15 L35.6979058,0 Z" id="path-4"></path>
        <radialGradient cx="48.981102%" cy="48.949356%" fx="48.981102%" fy="48.949356%" r="0.514933059%" gradientTransform="translate(0.489811,0.489494),scale(1.000000,0.757077),translate(-0.489811,-0.489494)" id="radialGradient-6">
            <stop stop-color="#F26825" offset="0%"></stop>
            <stop stop-color="#F26825" offset="10.7%"></stop>
            <stop stop-color="#E73E30" offset="89.84%"></stop>
            <stop stop-color="#E73E30" offset="100%"></stop>
        </radialGradient>
        <path d="M14.454,2.17535545 C13.64,3.66824645 10.12,10.492891 6.754,17.7014218 C6.754,17.7014218 2.112,28.0663507 0.418,34.1445498 C-0.462,37.2369668 0.946,43.1018957 3.102,44.8080569 C3.608,44.7014218 3.85,44.5308057 4.092,44.3815166 C3.63,44.1042654 2.508,41.7582938 3.322,38.0473934 C3.564,36.9597156 3.916,35.8080569 4.334,34.5924171 C4.774,33.3554502 5.28,32.0758294 5.896,30.7535545 C6.49,29.4099526 7.876,26.6800948 8.25,25.9549763 L11,20.5592417 C15.422,12.049763 20.46,4.13744076 21.56,2.51658768 C22.616,0.938388626 21.01,0.0853080569 19.03,0.0853080569 C17.27,0.106635071 15.202,0.767772512 14.454,2.17535545" id="path-7"></path>
        <radialGradient cx="49.6784762%" cy="50.0018891%" fx="49.6784762%" fy="50.0018891%" r="0.952380952%" gradientTransform="translate(0.496785,0.500019),scale(1.000000,0.517009),translate(-0.496785,-0.500019)" id="radialGradient-9">
            <stop stop-color="#F26825" offset="0%"></stop>
            <stop stop-color="#F26825" offset="10.7%"></stop>
            <stop stop-color="#E73E30" offset="89.84%"></stop>
            <stop stop-color="#E73E30" offset="100%"></stop>
        </radialGradient>
        <path d="M7.33793103,10.5473684 C8.08045977,9.32631579 8.91034483,8.27368421 9.78390805,7.36842105 C10.6574713,6.46315789 11.5965517,5.76842105 12.5793103,5.24210526 C13.562069,4.71578947 14.4793103,4.42105263 15.3747126,4.33684211 C15.1344828,6.50526316 14.0862069,8.44210526 12.2735632,10.2105263 C10.4390805,11.9578947 8.18965517,13.3894737 5.52528736,14.5263158 C5.96206897,13.0947368 6.57356322,11.7684211 7.33793103,10.5473684 M11.4655172,0.610526316 C10.3517241,1.03157895 9.25977011,1.62105263 8.18965517,2.37894737 C7.11954023,3.13684211 6.11494253,4.04210526 5.15402299,5.11578947 C4.19310345,6.16842105 3.36321839,7.30526316 2.62068966,8.50526316 C1.87816092,9.70526316 1.28850575,10.9684211 0.851724138,12.2947368 C0.414942529,13.6 0.152873563,14.9052632 0.0655172414,16.1894737 C-0.0436781609,18.0631579 0.502298851,19.7052632 1.6816092,21.1157895 C2.86091954,22.5052632 4.56436782,23.3894737 6.8137931,23.7684211 C8.82298851,24.0210526 11.8586207,23.2210526 16.9689655,17.2 C16.7505747,16.9473684 16.4885057,16.6526316 16.1827586,16.3578947 C15.6367816,16.8631579 15.0034483,17.4315789 14.3045977,18.0421053 C13.6057471,18.6526316 12.8632184,19.2210526 12.0551724,19.7263158 C11.2689655,20.2315789 10.4390805,20.6526316 9.56551724,20.9894737 C8.69195402,21.3263158 7.8183908,21.4736842 6.94482759,21.4315789 C6.4862069,21.4105263 6.11494253,21.2631579 5.83103448,21.0315789 C5.54712644,20.7789474 5.32873563,20.4631579 5.19770115,20.0842105 C5.04482759,19.7052632 4.95747126,19.2842105 4.9137931,18.8421053 C4.87011494,18.4 4.87011494,17.9789474 4.89195402,17.5578947 C4.9137931,17.3473684 4.9137931,17.1368421 4.95747126,16.9263158 C4.97931034,16.7157895 5.00114943,16.5263158 5.02298851,16.3368421 C7.14137931,15.6631579 9.01954023,14.9263158 10.6356322,14.1684211 C12.2517241,13.3894737 13.6275862,12.5263158 14.7632184,11.5157895 C15.9206897,10.5263158 16.816092,9.34736842 17.4712644,7.97894737 C18.1264368,6.61052632 19,4.31578947 18.8252874,3.01052632 C18.6505747,1.70526316 16.7068966,0.315789474 14.7632184,0.105263158 C14.5885057,0.0842105263 14.391954,0.0842105263 14.2172414,0.0842105263 C13.3218391,0.0421052632 12.4045977,0.273684211 11.4655172,0.610526316" id="path-10"></path>
        <radialGradient cx="49.8940299%" cy="49.560594%" fx="49.8940299%" fy="49.560594%" r="1.14810563%" gradientTransform="translate(0.498940,0.495606),scale(1.000000,0.793970),translate(-0.498940,-0.495606)" id="radialGradient-12">
            <stop stop-color="#F26825" offset="0%"></stop>
            <stop stop-color="#F26825" offset="10.7%"></stop>
            <stop stop-color="#E73E30" offset="89.84%"></stop>
            <stop stop-color="#E73E30" offset="100%"></stop>
        </radialGradient>
    </defs>
    <g id="Front/Header/Desktop" stroke="none" stroke-width="1" fill="none" fill-rule="evenodd" transform="translate(-170.000000, -17.000000)">
        <g id="Logo/Alea" transform="translate(170.000000, 17.000000)">
            <g id="logo">
                <g id="Clipped" transform="translate(67.000000, 19.000000)">
                    <mask id="mask-2" fill="white">
                        <use xlink:href="#path-1"></use>
                    </mask>
                    <g id="SVGID_1_"></g>
                    <rect id="Rectangle-path" fill="url(#radialGradient-3)" fill-rule="nonzero" mask="url(#mask-2)" x="-0.640449438" y="0.0865979381" width="20.6224719" height="21.714433"></rect>
                </g>
                <g id="Clipped">
                    <mask id="mask-5" fill="white">
                        <use xlink:href="#path-4"></use>
                    </mask>
                    <g id="SVGID_4_"></g>
                    <rect id="Rectangle-path" fill="url(#radialGradient-6)" fill-rule="nonzero" mask="url(#mask-5)" x="0" y="0" width="41.686911" height="55.0629921"></rect>
                </g>
                <g id="Clipped" transform="translate(38.000000, 3.000000)">
                    <mask id="mask-8" fill="white">
                        <use xlink:href="#path-7"></use>
                    </mask>
                    <g id="SVGID_7_"></g>
                    <rect id="Rectangle-path" fill="url(#radialGradient-9)" fill-rule="nonzero" mask="url(#mask-8)" x="-0.462" y="0.106635071" width="23.1" height="44.6800948"></rect>
                </g>
                <g id="Clipped" transform="translate(48.000000, 20.000000)">
                    <mask id="mask-11" fill="white">
                        <use xlink:href="#path-10"></use>
                    </mask>
                    <g id="SVGID_10_"></g>
                    <rect id="Rectangle-path" fill="url(#radialGradient-12)" fill-rule="nonzero" mask="url(#mask-11)" x="-0.0436781609" y="0.0421052632" width="19.0218391" height="23.9578947"></rect>
                </g>
                <g id="Group" transform="translate(2.000000, 4.000000)" fill="#F19D23" fill-rule="nonzero">
                    <g id="Clipped" transform="translate(64.000000, 33.000000)">
                        <path d="M0.829850746,0.843076923 C0.829850746,0.843076923 0.851492537,0.886153846 0.894776119,0.972307692 C0.938059701,1.05846154 0.981343284,1.18769231 1.06791045,1.33846154 C1.13283582,1.48923077 1.24104478,1.68307692 1.37089552,1.87692308 C1.50074627,2.07076923 1.65223881,2.28615385 1.84701493,2.50153846 C2.23656716,2.91076923 2.77761194,3.27692308 3.42686567,3.38461538 C4.0761194,3.51384615 4.83358209,3.44923077 5.54776119,3.23384615 C5.72089552,3.19076923 5.91567164,3.12615385 6.08880597,3.06153846 L6.34850746,2.95384615 L6.62985075,2.84615385 C6.99776119,2.69538462 7.34402985,2.56615385 7.69029851,2.41538462 C8.38283582,2.13538462 9.03208955,1.85538462 9.57313433,1.61846154 C10.1358209,1.38153846 10.5902985,1.18769231 10.9149254,1.05846154 C11.2395522,0.929230769 11.4343284,0.864615385 11.4343284,0.864615385 C11.4343284,0.864615385 11.2828358,0.993846154 11.0014925,1.20923077 C10.7201493,1.42461538 10.3089552,1.72615385 9.81119403,2.07076923 C9.55149254,2.24307692 9.27014925,2.41538462 8.96716418,2.58769231 C8.6641791,2.76 8.33955224,2.95384615 7.99328358,3.12615385 C7.64701493,3.29846154 7.30074627,3.47076923 6.93283582,3.62153846 L6.65149254,3.75076923 C6.54328358,3.79384615 6.45671642,3.83692308 6.34850746,3.85846154 C6.15373134,3.92307692 5.95895522,4.00923077 5.74253731,4.05230769 C5.33134328,4.16 4.89850746,4.24615385 4.46567164,4.26769231 C4.03283582,4.28923077 3.6,4.24615385 3.18880597,4.11692308 C2.77761194,4.00923077 2.40970149,3.81538462 2.10671642,3.57846154 C1.80373134,3.34153846 1.56567164,3.06153846 1.39253731,2.80307692 C1.21940299,2.52307692 1.08955224,2.26461538 1.00298507,2.02769231 C0.91641791,1.79076923 0.873134328,1.57538462 0.829850746,1.40307692 C0.786567164,1.23076923 0.786567164,1.08 0.786567164,0.993846154 C0.829850746,0.886153846 0.829850746,0.843076923 0.829850746,0.843076923" id="Shape"></path>
                    </g>
                    <g id="Clipped" transform="translate(39.000000, 1.000000)">
                        <path d="M18.5798507,0.621538462 C18.341791,1.03076923 18.1253731,1.46153846 17.8873134,1.89230769 L17.2164179,3.18461538 L15.8746269,5.74769231 L13.1910448,10.8738462 L10.5291045,16 C9.64179104,17.7230769 8.75447761,19.4246154 7.88880597,21.1476923 L6.59029851,23.7323077 C6.15746269,24.5938462 5.72462687,25.4553846 5.31343284,26.3169231 C4.90223881,27.1784615 4.46940299,28.04 4.05820896,28.9230769 C3.64701493,29.7846154 3.25746269,30.6676923 2.86791045,31.5507692 C2.67313433,31.9815385 2.47835821,32.4338462 2.30522388,32.8646154 C2.13208955,33.2953846 1.95895522,33.7476923 1.80746269,34.2 C1.5261194,35.1046154 1.30970149,36.0307692 1.15820896,36.9784615 C1.02835821,37.9261538 0.963432836,38.8738462 0.985074627,39.8215385 C1.00671642,40.2953846 1.02835821,40.7692308 1.09328358,41.2430769 C1.13656716,41.48 1.15820896,41.7169231 1.22313433,41.9538462 C1.24477612,42.0615385 1.2880597,42.1907692 1.33134328,42.2984615 C1.37462687,42.4061538 1.41791045,42.5353846 1.48283582,42.5784615 L1.5261194,42.6215385 L1.48283582,42.6646154 C1.30970149,42.7723077 1.13656716,42.9015385 0.963432836,43.0092308 C0.790298507,43.1169231 0.595522388,43.2246154 0.400746269,43.3107692 C0.573880597,43.2030769 0.768656716,43.0953846 0.920149254,42.9661538 C1.09328358,42.8369231 1.24477612,42.7076923 1.41791045,42.5784615 L1.41791045,42.6646154 C1.2880597,42.5784615 1.24477612,42.4492308 1.20149254,42.3415385 C1.15820896,42.2338462 1.11492537,42.1046154 1.07164179,41.9969231 C0.985074627,41.76 0.941791045,41.5230769 0.876865672,41.2861538 C0.768656716,40.8123077 0.703731343,40.3169231 0.660447761,39.8430769 C0.573880597,38.8738462 0.573880597,37.8830769 0.682089552,36.9138462 C0.768656716,35.9446154 0.941791045,34.9753846 1.22313433,34.0276923 C1.35298507,33.5538462 1.50447761,33.08 1.67761194,32.6276923 C1.85074627,32.1753846 2.0238806,31.7230769 2.19701493,31.2707692 C2.56492537,30.3661538 2.93283582,29.4830769 3.34402985,28.6 C3.73358209,27.7169231 4.14477612,26.8338462 4.55597015,25.9723077 C4.96716418,25.0892308 5.4,24.2276923 5.83283582,23.3661538 C6.26567164,22.5046154 6.69850746,21.6430769 7.13134328,20.7815385 C8.01865672,19.0584615 8.90597015,17.3569231 9.83656716,15.6553846 L11.2216418,13.1138462 C11.6761194,12.2738462 12.1522388,11.4338462 12.6283582,10.5938462 C13.1044776,9.75384615 13.580597,8.91384615 14.0567164,8.07384615 L15.5283582,5.57538462 C16.0261194,4.75692308 16.5238806,3.91692308 17.0216418,3.09846154 C17.519403,2.23692308 18.038806,1.41846154 18.5798507,0.621538462" id="Shape"></path>
                    </g>
                    <g id="Clipped" transform="translate(47.000000, 34.000000)">
                        <path d="M0.494776119,4 C0.494776119,4 0.538059701,4.06461538 0.624626866,4.15076923 C0.71119403,4.25846154 0.841044776,4.40923077 1.0141791,4.58153846 C1.18731343,4.75384615 1.40373134,4.96923077 1.66343284,5.18461538 C1.92313433,5.4 2.2261194,5.63692308 2.59402985,5.85230769 C2.94029851,6.06769231 3.35149254,6.28307692 3.78432836,6.45538462 C4.21716418,6.62769231 4.69328358,6.73538462 5.19104478,6.8 C5.42910448,6.82153846 5.68880597,6.82153846 5.97014925,6.82153846 C6.22985075,6.8 6.51119403,6.8 6.77089552,6.75692308 C7.29029851,6.69230769 7.80970149,6.54153846 8.32910448,6.32615385 C8.82686567,6.11076923 9.32462687,5.83076923 9.77910448,5.52923077 C10.2335821,5.22769231 10.6664179,4.88307692 11.0776119,4.53846154 C11.488806,4.19384615 11.8783582,3.84923077 12.2462687,3.52615385 C12.6141791,3.20307692 12.938806,2.85846154 13.2634328,2.55692308 C13.5664179,2.25538462 13.8477612,1.97538462 14.1074627,1.71692308 C14.3671642,1.45846154 14.5835821,1.24307692 14.7567164,1.07076923 C15.1246269,0.704615385 15.319403,0.510769231 15.319403,0.510769231 C15.319403,0.510769231 15.1679104,0.747692308 14.8649254,1.17846154 C14.5619403,1.58769231 14.1291045,2.16923077 13.5880597,2.85846154 C13.3067164,3.20307692 13.0037313,3.54769231 12.6574627,3.93538462 C12.311194,4.30153846 11.9432836,4.68923077 11.5537313,5.07692308 C11.1641791,5.46461538 10.7097015,5.83076923 10.2335821,6.17538462 C9.75746269,6.52 9.2380597,6.84307692 8.67537313,7.10153846 C8.11268657,7.36 7.50671642,7.53230769 6.90074627,7.61846154 C6.59776119,7.66153846 6.29477612,7.68307692 6.01343284,7.68307692 C5.73208955,7.68307692 5.42910448,7.68307692 5.1261194,7.64 C4.54179104,7.57538462 3.97910448,7.40307692 3.50298507,7.16615385 C3.02686567,6.95076923 2.61567164,6.64923077 2.26940299,6.36923077 C1.57686567,5.78769231 1.12238806,5.16307692 0.862686567,4.73230769 C0.732835821,4.51692308 0.646268657,4.32307692 0.602985075,4.19384615 C0.51641791,4.06461538 0.494776119,4 0.494776119,4" id="Shape"></path>
                    </g>
                    <g id="Clipped" transform="translate(61.000000, 43.000000)">
                        <path d="M0.8,0.901538462 C0.929850746,0.901538462 1.0380597,0.944615385 1.12462687,1.03076923 C1.21119403,1.11692308 1.25447761,1.22461538 1.25447761,1.37538462 C1.25447761,1.50461538 1.21119403,1.61230769 1.12462687,1.72 C1.0380597,1.80615385 0.929850746,1.84923077 0.8,1.84923077 C0.670149254,1.84923077 0.561940299,1.80615385 0.475373134,1.72 C0.38880597,1.63384615 0.345522388,1.52615385 0.345522388,1.37538462 C0.345522388,1.24615385 0.38880597,1.13846154 0.475373134,1.03076923 C0.561940299,0.944615385 0.670149254,0.901538462 0.8,0.901538462" id="Shape"></path>
                    </g>
                    <g id="Clipped" transform="translate(63.000000, 40.000000)">
                        <path d="M4.44850746,1.44615385 L4.01567164,1.70461538 C3.64776119,1.20923077 3.15,0.972307692 2.50074627,0.972307692 C2.00298507,0.972307692 1.57014925,1.14461538 1.2238806,1.46769231 C0.87761194,1.79076923 0.726119403,2.17846154 0.726119403,2.65230769 C0.726119403,2.95384615 0.812686567,3.23384615 0.964179104,3.51384615 C1.11567164,3.77230769 1.33208955,3.98769231 1.59179104,4.13846154 C1.85149254,4.28923077 2.15447761,4.35384615 2.50074627,4.35384615 C3.10671642,4.35384615 3.60447761,4.11692308 3.99402985,3.62153846 L4.42686567,3.90153846 C4.23208955,4.20307692 3.95074627,4.44 3.6261194,4.59076923 C3.27985075,4.76307692 2.9119403,4.82769231 2.47910448,4.82769231 C1.82985075,4.82769231 1.26716418,4.61230769 0.834328358,4.20307692 C0.401492537,3.79384615 0.185074627,3.27692308 0.185074627,2.67384615 C0.185074627,2.26461538 0.293283582,1.89846154 0.488059701,1.55384615 C0.682835821,1.20923077 0.964179104,0.929230769 1.33208955,0.756923077 C1.67835821,0.563076923 2.08955224,0.476923077 2.52238806,0.476923077 C2.80373134,0.476923077 3.06343284,0.52 3.32313433,0.606153846 C3.58283582,0.692307692 3.79925373,0.8 3.97238806,0.929230769 C4.16716418,1.08 4.31865672,1.25230769 4.44850746,1.44615385" id="Shape"></path>
                    </g>
                    <g id="Clipped" transform="translate(68.000000, 40.000000)">
                        <path d="M2.45671642,0.476923077 C3.10597015,0.476923077 3.62537313,0.713846154 4.05820896,1.16615385 C4.44776119,1.59692308 4.64253731,2.09230769 4.64253731,2.67384615 C4.64253731,3.25538462 4.44776119,3.75076923 4.03656716,4.20307692 C3.62537313,4.63384615 3.10597015,4.84923077 2.47835821,4.84923077 C1.82910448,4.84923077 1.30970149,4.63384615 0.898507463,4.20307692 C0.487313433,3.77230769 0.292537313,3.25538462 0.292537313,2.67384615 C0.292537313,2.09230769 0.487313433,1.59692308 0.876865672,1.18769231 C1.26641791,0.713846154 1.80746269,0.476923077 2.45671642,0.476923077 M2.43507463,1.01538462 C1.98059701,1.01538462 1.61268657,1.18769231 1.2880597,1.51076923 C0.963432836,1.83384615 0.811940299,2.24307692 0.811940299,2.69538462 C0.811940299,2.99692308 0.876865672,3.27692308 1.02835821,3.53538462 C1.17985075,3.79384615 1.37462687,3.98769231 1.61268657,4.13846154 C1.85074627,4.28923077 2.13208955,4.35384615 2.43507463,4.35384615 C2.7380597,4.35384615 2.99776119,4.28923077 3.25746269,4.13846154 C3.51716418,3.98769231 3.7119403,3.79384615 3.84179104,3.53538462 C3.99328358,3.27692308 4.05820896,2.99692308 4.05820896,2.69538462 C4.05820896,2.22153846 3.90671642,1.83384615 3.58208955,1.51076923 C3.27910448,1.16615385 2.88955224,1.01538462 2.43507463,1.01538462" id="Shape"></path>
                    </g>
                    <g id="Clipped" transform="translate(73.000000, 40.000000)">
                        <path d="M0.61641791,0.584615385 L1.15746269,0.584615385 L1.15746269,1.29538462 C1.35223881,1.03692308 1.54701493,0.843076923 1.74179104,0.713846154 C2.02313433,0.541538462 2.30447761,0.476923077 2.60746269,0.476923077 C2.80223881,0.476923077 2.99701493,0.52 3.19179104,0.584615385 C3.36492537,0.670769231 3.51641791,0.778461538 3.64626866,0.907692308 C3.75447761,1.03692308 3.86268657,1.23076923 3.94925373,1.46769231 C4.12238806,1.14461538 4.36044776,0.886153846 4.62014925,0.735384615 C4.87985075,0.563076923 5.18283582,0.476923077 5.4858209,0.476923077 C5.76716418,0.476923077 6.02686567,0.541538462 6.24328358,0.692307692 C6.45970149,0.843076923 6.63283582,1.03692308 6.74104478,1.29538462 C6.84925373,1.55384615 6.89253731,1.94153846 6.89253731,2.45846154 L6.89253731,4.72 L6.35149254,4.72 L6.35149254,2.45846154 C6.35149254,2.00615385 6.32985075,1.70461538 6.26492537,1.53230769 C6.2,1.36 6.09179104,1.23076923 5.94029851,1.12307692 C5.78880597,1.01538462 5.59402985,0.972307692 5.37761194,0.972307692 C5.11791045,0.972307692 4.87985075,1.05846154 4.66343284,1.20923077 C4.44701493,1.36 4.29552239,1.57538462 4.18731343,1.81230769 C4.07910448,2.07076923 4.0358209,2.50153846 4.0358209,3.08307692 L4.0358209,4.72 L3.49477612,4.72 L3.49477612,2.58769231 C3.49477612,2.09230769 3.47313433,1.74769231 3.40820896,1.57538462 C3.34328358,1.40307692 3.23507463,1.25230769 3.08358209,1.14461538 C2.93208955,1.03692308 2.73731343,0.972307692 2.52089552,0.972307692 C2.28283582,0.972307692 2.04477612,1.03692308 1.82835821,1.18769231 C1.6119403,1.33846154 1.46044776,1.53230769 1.35223881,1.79076923 C1.24402985,2.04923077 1.20074627,2.43692308 1.20074627,2.95384615 L1.20074627,4.72 L0.659701493,4.72 L0.659701493,0.584615385 L0.61641791,0.584615385 Z" id="Shape"></path>
                    </g>
                    <g id="Clipped" transform="translate(50.000000, 20.000000)">
                        <path d="M0.654477612,13.8430769 C0.654477612,13.8430769 0.957462687,13.7138462 1.47686567,13.4769231 C1.99626866,13.24 2.73208955,12.9169231 3.61940299,12.5076923 C4.05223881,12.2923077 4.52835821,12.0769231 5.0261194,11.8184615 C5.5238806,11.5815385 6.04328358,11.3015385 6.56268657,11 C7.08208955,10.72 7.60149254,10.3753846 8.12089552,10.0307692 C8.64029851,9.68615385 9.15970149,9.29846154 9.6358209,8.88923077 C10.1335821,8.48 10.5880597,8.04923077 10.9776119,7.59692308 C11.388806,7.12307692 11.7567164,6.64923077 12.0813433,6.15384615 C12.4059701,5.65846154 12.6656716,5.16307692 12.9037313,4.66769231 C13.141791,4.17230769 13.358209,3.69846154 13.5313433,3.24615385 C13.8992537,2.36307692 14.1373134,1.58769231 14.2455224,1.04923077 C14.288806,0.769230769 14.3320896,0.553846154 14.3320896,0.403076923 C14.3320896,0.252307692 14.3320896,0.166153846 14.3320896,0.166153846 C14.3320896,0.166153846 14.3537313,0.252307692 14.3753731,0.403076923 C14.3970149,0.553846154 14.4186567,0.790769231 14.4186567,1.07076923 C14.3970149,1.65230769 14.288806,2.47076923 14.0074627,3.41846154 C13.8776119,3.89230769 13.7044776,4.40923077 13.4880597,4.92615385 C13.2932836,5.44307692 13.0335821,6.00307692 12.730597,6.54153846 C12.4059701,7.08 12.0597015,7.61846154 11.6268657,8.13538462 C11.1940299,8.63076923 10.7179104,9.10461538 10.1985075,9.53538462 C9.67910448,9.96615385 9.1380597,10.3538462 8.59701493,10.6984615 C8.05597015,11.0646154 7.47164179,11.3661538 6.93059701,11.6461538 C6.36791045,11.9261538 5.82686567,12.1630769 5.30746269,12.3784615 C4.7880597,12.5938462 4.29029851,12.7661538 3.8141791,12.9384615 C2.88358209,13.2615385 2.10447761,13.4769231 1.54179104,13.6061538 C1.26044776,13.6707692 1.04402985,13.7353846 0.892537313,13.7569231 C0.719402985,13.8215385 0.654477612,13.8430769 0.654477612,13.8430769" id="Shape"></path>
                    </g>
                    <g id="Clipped" transform="translate(80.000000, 18.000000)">
                        <path d="M1.3858209,17.8461538 C1.3858209,17.8461538 1.3641791,17.8461538 1.34253731,17.8246154 C1.32089552,17.8030769 1.27761194,17.7815385 1.21268657,17.7169231 C1.10447761,17.6092308 0.974626866,17.4584615 0.844776119,17.2430769 C0.585074627,16.7907692 0.303731343,16.1015385 0.173880597,15.2184615 C0.108955224,14.7876923 0.0656716418,14.2923077 0.0873134328,13.7969231 C0.0873134328,13.5384615 0.108955224,13.28 0.130597015,13.0215385 C0.152238806,12.7630769 0.195522388,12.4830769 0.23880597,12.2030769 C0.282089552,11.9230769 0.325373134,11.6646154 0.390298507,11.3630769 C0.455223881,11.0830769 0.520149254,10.8246154 0.606716418,10.5446154 C0.693283582,10.2646154 0.758208955,9.98461538 0.844776119,9.70461538 C0.931343284,9.42461538 1.01791045,9.14461538 1.10447761,8.88615385 C1.29925373,8.34769231 1.49402985,7.80923077 1.68880597,7.27076923 C1.88358209,6.73230769 2.1,6.21538462 2.31641791,5.72 C2.53283582,5.22461538 2.72761194,4.75076923 2.94402985,4.29846154 C3.13880597,3.84615385 3.35522388,3.41538462 3.52835821,3.02769231 C3.72313433,2.64 3.89626866,2.29538462 4.04776119,1.97230769 C4.19925373,1.64923077 4.35074627,1.39076923 4.48059701,1.17538462 C4.71865672,0.723076923 4.89179104,0.486153846 4.89179104,0.486153846 C4.89179104,0.486153846 4.80522388,0.766153846 4.65373134,1.24 C4.50223881,1.71384615 4.2858209,2.40307692 4.00447761,3.22153846 C3.87462687,3.63076923 3.72313433,4.06153846 3.55,4.53538462 C3.37686567,5.00923077 3.22537313,5.48307692 3.03059701,6 C2.85746269,6.49538462 2.68432836,7.03384615 2.48955224,7.55076923 C2.29477612,8.08923077 2.12164179,8.62769231 1.92686567,9.16615385 C1.84029851,9.42461538 1.73208955,9.70461538 1.64552239,9.96307692 C1.55895522,10.2430769 1.47238806,10.5015385 1.3858209,10.76 C1.29925373,11.0184615 1.23432836,11.2984615 1.14776119,11.5569231 C1.06119403,11.8153846 1.01791045,12.0738462 0.952985075,12.3323077 C0.844776119,12.8492308 0.758208955,13.3446154 0.714925373,13.8184615 C0.671641791,14.2923077 0.65,14.7446154 0.671641791,15.1753846 C0.693283582,15.5846154 0.714925373,15.9723077 0.779850746,16.3169231 C0.844776119,16.64 0.909701493,16.9415385 0.996268657,17.1784615 C1.08283582,17.4153846 1.16940299,17.5876923 1.23432836,17.6953846 C1.25597015,17.7169231 1.27761194,17.7384615 1.27761194,17.76 C1.29925373,17.7815385 1.29925373,17.8030769 1.32089552,17.8030769 C1.3858209,17.8246154 1.3858209,17.8461538 1.3858209,17.8461538" id="Shape"></path>
                    </g>
                    <g id="Clipped" transform="translate(69.000000, 20.000000)">
                        <path d="M8.87985075,2.08307692 C8.96641791,2.06153846 9.03134328,2.06153846 9.11791045,2.04 C9.18283582,2.04 9.24776119,2.04 9.31268657,2.01846154 C9.42089552,1.56615385 9.50746269,1.17846154 9.59402985,0.855384615 C9.4641791,0.855384615 9.35597015,0.876923077 9.2261194,0.898461538 C9.13955224,0.92 9.03134328,0.92 8.94477612,0.941538462 C8.85820896,0.963076923 8.75,0.984615385 8.66343284,1.00615385 C8.2738806,1.09230769 7.86268657,1.24307692 7.45149254,1.43692308 C7.04029851,1.63076923 6.62910448,1.86769231 6.23955224,2.12615385 C5.85,2.40615385 5.46044776,2.70769231 5.09253731,3.05230769 C4.72462687,3.39692308 4.37835821,3.76307692 4.05373134,4.12923077 C3.72910448,4.51692308 3.4261194,4.90461538 3.14477612,5.31384615 C2.86343284,5.72307692 2.60373134,6.11076923 2.36567164,6.52 C2.12761194,6.90769231 1.93283582,7.31692308 1.7380597,7.68307692 C1.54328358,8.07076923 1.39179104,8.41538462 1.24029851,8.76 C1.08880597,9.10461538 0.980597015,9.40615385 0.87238806,9.68615385 C0.764179104,9.96615385 0.699253731,10.2246154 0.634328358,10.4184615 C0.569402985,10.6123077 0.526119403,10.7846154 0.504477612,10.8923077 C0.482835821,11 0.46119403,11.0646154 0.46119403,11.0646154 C0.46119403,11.0646154 0.482835821,11 0.526119403,10.8923077 C0.569402985,10.7846154 0.612686567,10.6338462 0.699253731,10.44 C0.785820896,10.2461538 0.87238806,10.0092308 1.00223881,9.72923077 C1.13208955,9.44923077 1.2619403,9.14769231 1.43507463,8.82461538 C1.60820896,8.50153846 1.80298507,8.15692308 2.01940299,7.79076923 C2.2358209,7.44615385 2.4738806,7.05846154 2.73358209,6.69230769 C2.99328358,6.32615385 3.27462687,5.96 3.57761194,5.59384615 C3.88059701,5.22769231 4.20522388,4.88307692 4.55149254,4.53846154 C4.89776119,4.19384615 5.24402985,3.89230769 5.6119403,3.59076923 C5.97985075,3.31076923 6.34776119,3.05230769 6.73731343,2.83692308 C7.12686567,2.62153846 7.49477612,2.42769231 7.86268657,2.29846154 C8.18731343,2.21230769 8.55522388,2.12615385 8.87985075,2.08307692" id="Shape"></path>
                    </g>
                    <g id="Clipped" transform="translate(12.000000, 21.000000)">
                        <path d="M2.70746269,2.46153846 C3.1619403,2.65538462 3.65970149,2.80615385 4.20074627,2.95692308 C4.74179104,3.10769231 5.3261194,3.21538462 5.91044776,3.30153846 C6.51641791,3.38769231 7.12238806,3.45230769 7.77164179,3.49538462 C8.39925373,3.53846154 9.04850746,3.56 9.69776119,3.56 C10.3470149,3.56 10.9962687,3.56 11.6238806,3.51692308 C11.9485075,3.49538462 12.2514925,3.47384615 12.5761194,3.47384615 C12.8791045,3.45230769 13.2037313,3.43076923 13.5067164,3.40923077 C13.8097015,3.38769231 14.1126866,3.34461538 14.3940299,3.32307692 C14.6753731,3.28 14.9783582,3.25846154 15.2380597,3.21538462 C15.4544776,3.19384615 15.6708955,3.15076923 15.8656716,3.12923077 C16.0604478,2.72 16.2552239,2.33230769 16.45,1.94461538 C16.0171642,2.05230769 15.5626866,2.13846154 15.0649254,2.24615385 C14.8052239,2.28923077 14.5238806,2.35384615 14.2425373,2.39692308 C13.961194,2.44 13.6798507,2.48307692 13.3768657,2.54769231 C13.0738806,2.59076923 12.7925373,2.63384615 12.4895522,2.67692308 C12.1865672,2.72 11.8835821,2.74153846 11.5589552,2.78461538 C10.9313433,2.84923077 10.3037313,2.91384615 9.6761194,2.93538462 C9.04850746,2.97846154 8.39925373,2.97846154 7.79328358,2.97846154 C7.16567164,2.97846154 6.55970149,2.95692308 5.95373134,2.89230769 C5.36940299,2.82769231 4.78507463,2.76307692 4.26567164,2.65538462 C3.72462687,2.54769231 3.22686567,2.41846154 2.79402985,2.26769231 C2.33955224,2.11692308 1.95,1.92307692 1.62537313,1.70769231 C1.30074627,1.49230769 1.06268657,1.25538462 0.91119403,1.04 C0.867910448,0.975384615 0.846268657,0.932307692 0.824626866,0.867692308 C0.802985075,0.803076923 0.759701493,0.76 0.759701493,0.716923077 C0.738059701,0.609230769 0.694776119,0.523076923 0.694776119,0.458461538 C0.673134328,0.307692308 0.673134328,0.221538462 0.673134328,0.221538462 C0.673134328,0.221538462 0.673134328,0.307692308 0.694776119,0.458461538 C0.694776119,0.523076923 0.738059701,0.630769231 0.759701493,0.738461538 C0.759701493,0.803076923 0.802985075,0.846153846 0.824626866,0.910769231 C0.846268657,0.975384615 0.867910448,1.04 0.91119403,1.08307692 C1.06268657,1.32 1.30074627,1.57846154 1.60373134,1.81538462 C1.86343284,2.05230769 2.25298507,2.26769231 2.70746269,2.46153846" id="Shape"></path>
                    </g>
                    <g id="Clipped">
                        <path d="M18.6029851,10.3446154 C20.0529851,9.05230769 21.5679104,7.76 23.1044776,6.55384615 C24.6626866,5.34769231 26.2425373,4.16307692 27.9089552,3.21538462 C28.7313433,2.74153846 29.5970149,2.31076923 30.4626866,2.03076923 C30.8955224,1.88 31.3283582,1.77230769 31.761194,1.75076923 C31.9776119,1.72923077 32.1940299,1.72923077 32.388806,1.75076923 C32.4753731,1.75076923 32.6052239,1.77230769 32.6701493,1.79384615 C32.8,1.83692308 32.8649254,1.83692308 32.9514925,1.88 C33.2977612,2.03076923 33.6007463,2.28923077 33.7955224,2.63384615 C34.0119403,2.97846154 34.1201493,3.36615385 34.2067164,3.77538462 C34.2932836,4.16307692 34.3149254,4.55076923 34.3365672,4.96 C34.4014925,3.51692308 34.2283582,2.39692308 33.8820896,1.57846154 C33.6873134,1.42769231 33.4925373,1.27692308 33.2544776,1.19076923 C33.1462687,1.12615385 32.9731343,1.08307692 32.8865672,1.06153846 C32.7350746,1.01846154 32.6268657,0.996923077 32.4753731,0.975384615 C32.2156716,0.932307692 31.9559701,0.932307692 31.6962687,0.953846154 C31.1768657,0.996923077 30.6791045,1.10461538 30.2029851,1.25538462 C29.2507463,1.55692308 28.3634328,2.00923077 27.4977612,2.48307692 C25.7664179,3.47384615 24.1432836,4.63692308 22.5634328,5.86461538 C21.0052239,7.09230769 19.4902985,8.40615385 18.0402985,9.72 C16.5902985,11.0338462 15.2052239,12.3692308 13.8850746,13.6830769 C12.5432836,14.9753846 11.3097015,16.2676923 10.119403,17.4953846 C8.92910448,18.7230769 7.84701493,19.9076923 6.82985075,21.0061538 C4.81716418,23.2030769 3.21567164,25.0769231 2.06865672,26.3907692 C1.50597015,27.0369231 1.07313433,27.5753846 0.770149254,27.9415385 C0.467164179,28.3076923 0.315671642,28.5015385 0.315671642,28.5015385 C0.315671642,28.5015385 0.986567164,27.7907692 2.19850746,26.52 C3.38880597,25.2492308 5.12014925,23.4830769 7.19776119,21.3507692 C8.23656716,20.2953846 9.38358209,19.1538462 10.5738806,17.9476923 C11.7858209,16.7415385 13.0626866,15.4923077 14.4044776,14.2215385 C15.7462687,12.9292308 17.1529851,11.6369231 18.6029851,10.3446154" id="Shape"></path>
                    </g>
                    <g id="Clipped" transform="translate(52.000000, 20.000000)">
                        <path d="M7.76567164,1.24307692 C7.48432836,1.37230769 7.15970149,1.52307692 6.83507463,1.69538462 C6.68358209,1.78153846 6.51044776,1.88923077 6.35895522,1.97538462 C6.27238806,2.01846154 6.1858209,2.06153846 6.09925373,2.12615385 C6.01268657,2.16923077 5.94776119,2.23384615 5.86119403,2.29846154 C5.70970149,2.40615385 5.53656716,2.53538462 5.36343284,2.64307692 C5.19029851,2.77230769 5.03880597,2.90153846 4.88731343,3.03076923 C4.56268657,3.28923077 4.25970149,3.59076923 3.95671642,3.87076923 C3.80522388,4.02153846 3.67537313,4.17230769 3.5238806,4.32307692 L3.30746269,4.53846154 L3.11268657,4.77538462 C2.98283582,4.92615385 2.85298507,5.07692308 2.72313433,5.22769231 C2.59328358,5.37846154 2.48507463,5.52923077 2.35522388,5.68 C2.11716418,5.98153846 1.90074627,6.28307692 1.70597015,6.58461538 C1.51119403,6.88615385 1.3380597,7.14461538 1.16492537,7.40307692 C0.840298507,7.92 0.602238806,8.37230769 0.429104478,8.67384615 C0.255970149,8.97538462 0.147761194,9.16923077 0.147761194,9.16923077 C0.147761194,9.16923077 0.255970149,8.99692308 0.47238806,8.71692308 C0.667164179,8.43692308 0.970149254,8.00615385 1.3380597,7.53230769 C1.51119403,7.29538462 1.72761194,7.03692308 1.94402985,6.77846154 C2.16044776,6.52 2.39850746,6.24 2.65820896,5.96 C2.7880597,5.83076923 2.91791045,5.68 3.04776119,5.55076923 C3.17761194,5.42153846 3.32910448,5.27076923 3.45895522,5.14153846 L3.67537313,4.92615385 L3.89179104,4.73230769 C4.04328358,4.60307692 4.19477612,4.47384615 4.34626866,4.34461538 C4.67089552,4.10769231 4.9738806,3.84923077 5.29850746,3.65538462 C5.47164179,3.54769231 5.62313433,3.44 5.77462687,3.33230769 C5.94776119,3.24615385 6.09925373,3.13846154 6.27238806,3.05230769 C6.35895522,3.00923077 6.4238806,2.96615385 6.51044776,2.92307692 C6.59701493,2.88 6.68358209,2.85846154 6.74850746,2.81538462 C6.9,2.75076923 7.07313433,2.66461538 7.22462687,2.6 C7.52761194,2.47076923 7.83059701,2.38461538 8.1119403,2.27692308 C8.1119403,2.27692308 8.1119403,2.27692308 8.13358209,2.27692308 C8.28507463,1.84615385 8.39328358,1.41538462 8.47985075,0.984615385 C8.28507463,1.04923077 8.02537313,1.13538462 7.76567164,1.24307692" id="Shape"></path>
                    </g>
                    <g id="Clipped" transform="translate(14.000000, 19.000000)">
                        <path d="M20.9208955,2.52307692 L20.8776119,2.63076923 C16.4626866,13.8307692 8.19552239,29.08 7.58955224,30.0492308 C6.9619403,31.0184615 6.11791045,32.5261538 3.5641791,32.4830769 C2.39552239,32.3753846 1.48656716,31.9230769 0.923880597,31.4061538 C0.685820896,31.3415385 0.447761194,31.2553846 0.252985075,31.1476923 C0.512686567,31.88 1.31343284,32.6769231 3.52089552,32.9353846 C4.97089552,33.1076923 6.44253731,33.1292308 8.04402985,30.6953846 C9.53731343,28.4553846 16.1813433,15.5538462 21.3537313,2.95384615 C22.3492537,2.24307692 24.4268657,1.10153846 25.0544776,0.713846154 C24.708209,0.864615385 21.3753731,2.39384615 21.0074627,2.52307692 L20.9208955,2.52307692 Z" id="Shape"></path>
                    </g>
                </g>
            </g>
        </g>
    </g>
</svg>